<svg width="188" height="177" viewBox="0 0 188 177" fill="none" xmlns="http://www.w3.org/2000/svg">
<path d="M150.992 86.089C188.815 53.9477 135.672 -18.6962 90.0119 24.6696C44.3519 68.0355 5.97688 127.864 3.20836 131.187C0.439843 134.51 59.2937 88.2754 58.5058 90.0006C57.7179 91.7258 35.6329 125.483 34.3245 127.884C33.0162 130.285 71.7224 105.348 70.2742 107.605C68.8261 109.863 20.2277 163.772 21.5481 162.707C22.8685 161.642 113.169 118.23 150.992 86.089Z" fill="#0059FF" stroke="#FED100" stroke-width="2"/>
<path d="M122.427 15.4898C117.834 15.2697 114.17 15.6104 110.209 16.6144C106.562 17.5447 102.615 19.3021 99.3644 21.4376C90.8375 27.0523 84.5107 36.1886 81.9823 46.5405C81.5023 48.5113 81.2996 49.7029 81.0468 52.0645C80.8126 54.2511 80.7733 54.9104 80.7924 56.7766C80.8272 60.4834 81.3834 63.7595 82.6359 67.603C86.2414 78.6812 94.7874 88.2536 105.055 92.7275C108.833 94.3705 111.969 95.1676 116.718 95.6887C119.339 95.9757 120.155 96.0063 122.448 95.9231C127.202 95.7496 132.122 94.6082 136.606 92.6364C140.892 90.751 144.616 88.2239 148.066 84.865C148.499 84.4437 149.023 83.9311 149.232 83.7323C149.852 83.1415 150.939 81.9245 151.674 81.0175C154.804 77.144 157.247 72.268 158.572 67.2534C159.19 64.9246 159.442 63.5045 159.721 60.8992C160.105 57.37 160.088 54.4992 159.669 51.1621C158.367 40.8297 152.92 30.7045 145.145 24.1594C142.696 22.0898 139.672 20.1799 136.856 18.9052C135.574 18.3193 132.823 17.3738 131.094 16.9233C129.884 16.6041 129.297 16.4718 127.889 16.1883C126.946 15.9989 123.255 15.5279 122.427 15.4898ZM127.991 17.5705C130.034 17.9473 132.688 18.7434 134.682 19.5824C135.514 19.9306 137.001 20.7028 138.007 21.3034C140.363 22.7247 141.82 24.252 142.488 26.0108C142.757 26.7157 142.736 26.8525 142.252 27.8117C141.043 30.2164 139.26 32.4963 136.895 34.6633C136.375 35.1447 136.321 35.1768 135.945 35.2377C135.398 35.3245 134.585 35.3259 133.204 35.2476C132.551 35.2155 131.747 35.1863 131.422 35.1831C129.915 35.1797 126.206 34.9975 124.266 34.8339L122.499 34.6827L121.622 33.5271C118.882 29.9035 116.452 26.49 115.984 25.5994C115.558 24.7829 115.499 23.8161 115.813 22.8702C116.39 21.1626 118.458 19.2039 121.215 17.755C122.64 17.0102 122.659 17.006 124.534 17.1372C125.789 17.221 126.819 17.3566 127.991 17.5705ZM145.747 28.4072C146.27 28.6085 146.847 28.9483 147.812 29.633C148.294 29.9754 148.818 30.3411 148.982 30.4471C149.748 30.9462 151.854 33.592 153.117 35.6419C155.745 39.9044 157.453 45.1616 157.854 50.2409C157.949 51.3949 157.931 51.8543 157.772 52.5767C157.327 54.6333 156.257 56.2692 153.371 59.3346C153.364 59.3409 153.359 59.3473 153.353 59.3535C152.545 60.207 152.528 60.2246 152.179 60.2939L151.822 60.363L151.092 59.9311C147.326 57.7142 143.954 55.2615 141.405 52.8968L140.688 52.2324L140.445 51.5176C139.78 49.5569 139.311 47.5667 138.522 43.3052C138.204 41.6029 137.879 39.9061 137.806 39.5319C137.604 38.556 137.587 38.314 137.67 37.533C137.769 36.6146 138.032 35.9035 138.631 34.9312C139.169 34.0536 139.702 33.3966 141.295 31.6651C141.961 30.9402 142.705 30.0656 142.96 29.7265C143.831 28.5432 144.047 28.3389 144.526 28.2448C144.819 28.1941 145.368 28.2655 145.747 28.4072ZM113.417 25.3878C114.26 25.636 114.985 26.2255 115.441 27.0453C115.657 27.4286 116.095 28.0695 116.979 29.2763C118.855 31.8532 119.571 33.0547 120.054 34.4398C120.442 35.5556 120.541 36.2045 120.486 37.2413C120.448 37.9512 120.438 37.988 120.179 38.5354C120.039 38.849 119.586 39.8053 119.187 40.6662C117.711 43.8257 116.171 47.2817 115.741 48.3732L115.534 48.9071L112.877 50.0634C109.923 51.3585 108.023 52.1598 106.358 52.8156C105.75 53.0602 105.099 53.3507 104.911 53.4696C104.125 53.9732 103.126 54.1948 102.38 54.0328C101.928 53.9338 101.284 53.6373 100.854 53.3259C100.019 52.7183 98.7477 51.2678 97.2262 49.1775C95.2909 46.5121 94.6982 45.387 94.4942 43.9623L94.4205 43.4236L94.602 43.0133C94.701 42.7901 95.2532 41.5475 95.8231 40.2562C96.393 38.9649 97.0545 37.5191 97.288 37.0323C99.4474 32.5809 101.418 30.0052 104.001 28.2596C104.938 27.6332 105.598 27.3058 107.343 26.6142C110.067 25.5346 111.136 25.2447 112.439 25.2325C112.802 25.2272 112.944 25.2486 113.417 25.3878ZM98.2957 26.2774C99.2083 26.868 99.781 27.9467 99.8451 29.2174L99.8684 29.7002L99.3731 30.4118C96.7591 34.2015 94.1755 39.4605 92.5286 44.3838C92.1438 45.5242 91.5715 46.2529 89.849 47.7936C89.3501 48.2457 88.7876 48.7669 88.611 48.9565C88.4281 49.1454 87.7917 49.7724 87.1916 50.3527C86.5072 51.0188 85.9984 51.5646 85.8198 51.8299C85.6694 52.0665 85.4175 52.3745 85.2715 52.5105C84.9803 52.7763 84.4219 53.0262 84.1745 52.9997C83.8714 52.9672 83.5418 52.774 83.315 52.4969C82.8056 51.8799 82.6786 50.9627 82.9287 49.7951C83.0059 49.4243 83.1216 48.8111 83.1803 48.4382C83.3302 47.5063 83.505 46.6909 83.8062 45.5731C85.432 39.5606 88.8119 33.8182 94.1233 28.0297C94.3993 27.7307 94.7361 27.3307 94.8751 27.1434C95.3274 26.5409 95.9767 26.086 96.6205 25.9148C96.7681 25.88 97.0491 25.8848 97.3577 25.9242C97.7886 25.9893 97.9089 26.0338 98.2957 26.2774ZM116.731 51.8031C118.901 53.0402 120.972 54.7849 123.125 57.1703C123.841 57.9611 125.467 59.8413 125.697 60.144L125.9 60.4059L125.388 62.5628C124.26 67.371 123.393 70.5641 122.445 73.401C121.941 74.8953 121.665 75.3081 120.596 76.1732C119.439 77.1046 118.152 77.6745 115.862 78.2697C112.407 79.1636 111.546 79.3116 110.544 79.2044C109.58 79.1011 108.121 78.5278 107.057 77.8325C106.009 77.1579 105.08 76.3759 103.034 74.4507C102.997 74.4162 102.96 74.3816 102.923 74.3469C102.198 73.6701 101.44 72.9618 101.191 72.7367C100.296 71.9205 99.5162 70.7311 99.0502 69.4743C98.5995 68.2506 98.4613 67.2627 98.5618 65.9148C98.6324 64.905 98.7747 64.2188 99.103 63.2555C99.2284 62.9024 99.3949 62.282 99.4762 61.8736C100.219 58.2059 102.017 55.7254 104.651 54.7309C104.905 54.638 105.364 54.4976 105.679 54.4239C106.404 54.2488 107.054 54.0214 108.252 53.524C111.532 52.1627 112.397 51.8572 113.711 51.6188C114.445 51.4825 115.321 51.4183 115.86 51.4697C116.133 51.4926 116.313 51.5625 116.731 51.8031ZM141.671 55.2572C145.878 57.9193 148.327 59.812 150.547 62.1033L151.139 62.7102L151.054 63.0929C151.013 63.2971 150.816 64.3187 150.617 65.359C149.867 69.3293 149.552 70.6921 148.976 72.4503C148.576 73.6714 147.778 74.7044 146.329 75.9016C145.033 76.9698 144.211 77.4568 140.369 79.4593C139.593 79.8629 138.596 80.4133 138.155 80.6758C136.35 81.7652 135.073 82.2921 134.11 82.3532C133.707 82.3796 133.639 82.366 133.002 82.1209C130.275 81.0643 127.493 79.2372 124.375 76.464C123.707 75.868 123.465 75.6146 123.475 75.5209C123.498 75.3085 124.044 73.0668 124.437 71.5606C124.892 69.8273 126.526 63.9105 126.569 63.8583C126.584 63.8346 126.731 63.2816 126.889 62.6224C127.418 60.4294 127.561 60.2045 129.125 59.2662C129.533 59.0192 130.48 58.4128 131.24 57.9191C133.049 56.7353 133.874 56.2232 134.723 55.7707C136.693 54.7241 138.332 54.255 139.997 54.2438C140.034 54.2477 140.793 54.7018 141.671 55.2572ZM83.7308 54.9238C83.7406 55.007 83.7648 55.5404 83.7967 56.1188C83.9608 59.4351 84.6159 63.1324 85.6535 66.5864C86.0073 67.7807 86.972 70.4559 87.2026 70.8724C87.6033 71.6294 87.6241 72.6616 87.2556 73.766C87.1548 74.0648 87.0649 74.3206 87.0512 74.3318C87.0169 74.3597 85.8119 71.7093 85.2938 70.4721C84.7058 69.0695 83.8961 66.7584 83.5545 65.5086C83.1088 63.8873 82.5096 60.4866 82.3525 58.6815C82.3028 58.0948 82.31 57.7354 82.4009 56.8857C82.51 55.8673 82.5222 55.8118 82.7123 55.4972C82.9468 55.1179 83.1482 54.9309 83.4269 54.8407C83.6987 54.756 83.7166 54.7643 83.7308 54.9238ZM151.5 75.9876C152.063 76.3323 152.08 77.2314 151.544 78.3179C151.193 79.0322 150.857 79.4828 149.248 81.4211C146.619 84.59 143.073 87.3888 138.887 89.6137C136.135 91.0695 132.482 92.5298 130.882 92.8072C130.354 92.8959 130.16 92.8941 129.38 92.8169C128.576 92.7309 128.453 92.7051 128.195 92.5448C127.778 92.2978 127.547 92.0583 127.395 91.7198L127.264 91.4277L128.038 90.5121C130.266 87.8691 131.513 86.5619 133.094 85.2397C134.249 84.2639 134.903 83.8283 135.866 83.3627C137.658 82.512 139.307 81.6079 143.208 79.3526C146.255 77.5872 146.967 77.1895 148.472 76.3965C149.513 75.8507 149.605 75.81 150.039 75.7869C150.296 75.7766 150.548 75.7594 150.599 75.7522C150.776 75.7332 151.306 75.8721 151.5 75.9876ZM96.64 70.5432C97.2985 70.7022 97.5814 70.8652 98.2585 71.4938C99.1229 72.3004 99.9834 73.1446 101.285 74.4846C104.288 77.574 105.519 78.7041 107.191 79.9132C107.835 80.3803 107.931 80.479 108.181 80.8913C109.064 82.3951 109.725 84.3489 109.91 86.0623C109.965 86.5484 109.957 86.9078 109.88 87.6326C109.768 88.7328 109.606 89.1957 109.124 89.7823C108.844 90.1189 108.817 90.135 108.37 90.2198C107.227 90.4449 106.016 90.4733 104.501 90.311L103.524 90.2064L102.701 89.8276C98.9143 88.0951 95.217 85.2347 91.8757 81.4456C90.6543 80.0573 89.6975 78.8869 89.5041 78.5313C89.0441 77.6858 88.7781 76.6652 88.7205 75.5089C88.7063 75.1156 88.7429 74.2475 88.8321 73.2397L88.9696 71.6051L89.2807 71.5625C89.4461 71.536 90.0675 71.4003 90.653 71.2482C93.8087 70.4613 94.358 70.3558 95.3136 70.3696C95.8378 70.3815 96.0481 70.404 96.64 70.5432ZM119.245 91.9529C120.182 92.1354 121.201 92.3772 122.356 92.6905C122.86 92.8329 123.486 93.0011 123.754 93.0677C124.752 93.3325 125.345 93.693 125.228 93.9649C125.129 94.1881 124.469 94.3385 123.522 94.3635C123.265 94.3676 122.668 94.3921 122.203 94.4119C121.737 94.4378 120.635 94.4462 119.76 94.441C114.734 94.4084 111.156 93.703 108.642 92.2394C108.224 91.9925 108.217 91.9981 109.251 91.8055C111.16 91.4537 112.846 91.3563 115.389 91.4515C115.937 91.4723 118.442 91.7974 119.245 91.9529Z" fill="#FED100"/>
<path d="M98.2957 26.2774C99.2083 26.868 99.781 27.9467 99.8451 29.2174L99.8684 29.7002L99.3731 30.4118C96.7591 34.2015 94.1755 39.4605 92.5286 44.3838C92.1438 45.5242 91.5715 46.2529 89.849 47.7936C89.3501 48.2457 88.7876 48.7669 88.611 48.9565C88.4281 49.1454 87.7917 49.7724 87.1916 50.3527C86.5072 51.0188 85.9984 51.5646 85.8198 51.8299C85.6694 52.0665 85.4175 52.3745 85.2715 52.5105C84.9803 52.7763 84.4219 53.0262 84.1745 52.9997C83.8714 52.9672 83.5418 52.774 83.315 52.4969C82.8056 51.8799 82.6786 50.9627 82.9287 49.7951C83.0059 49.4243 83.1216 48.8111 83.1803 48.4382C83.3302 47.5063 83.505 46.6909 83.8062 45.5731C85.432 39.5606 88.8119 33.8182 94.1233 28.0297C94.3993 27.7307 94.7361 27.3307 94.8751 27.1434C95.3274 26.5409 95.9767 26.086 96.6205 25.9148C96.7681 25.88 97.0491 25.8848 97.3577 25.9242C97.7886 25.9893 97.9089 26.0338 98.2957 26.2774Z" fill="#0059FF"/>
<path d="M113.417 25.3878C114.26 25.636 114.985 26.2255 115.441 27.0453C115.657 27.4286 116.095 28.0695 116.979 29.2763C118.855 31.8532 119.571 33.0547 120.054 34.4398C120.442 35.5556 120.541 36.2045 120.486 37.2413C120.448 37.9512 120.438 37.988 120.179 38.5354C120.039 38.849 119.586 39.8053 119.187 40.6662C117.711 43.8257 116.171 47.2817 115.741 48.3732L115.534 48.9071L112.877 50.0634C109.923 51.3585 108.023 52.1598 106.358 52.8156C105.75 53.0602 105.099 53.3507 104.911 53.4696C104.125 53.9732 103.126 54.1948 102.38 54.0328C101.928 53.9338 101.284 53.6373 100.854 53.3259C100.019 52.7183 98.7477 51.2678 97.2262 49.1775C95.2909 46.5121 94.6982 45.387 94.4942 43.9623L94.4205 43.4236L94.602 43.0133C94.701 42.7901 95.2532 41.5475 95.8231 40.2562C96.393 38.9649 97.0545 37.5191 97.288 37.0323C99.4474 32.5809 101.418 30.0052 104.001 28.2596C104.938 27.6332 105.598 27.3058 107.343 26.6142C110.067 25.5346 111.136 25.2447 112.439 25.2325C112.802 25.2272 112.944 25.2486 113.417 25.3878Z" fill="#0059FF"/>
<path d="M127.991 17.5705C130.034 17.9473 132.688 18.7434 134.682 19.5824C135.514 19.9306 137.001 20.7028 138.007 21.3034C140.363 22.7247 141.82 24.252 142.488 26.0108C142.757 26.7157 142.736 26.8525 142.252 27.8117C141.043 30.2164 139.26 32.4963 136.895 34.6633C136.375 35.1447 136.321 35.1768 135.945 35.2377C135.398 35.3245 134.585 35.3259 133.204 35.2476C132.551 35.2155 131.747 35.1863 131.422 35.1831C129.915 35.1797 126.206 34.9975 124.266 34.8339L122.499 34.6827L121.622 33.5271C118.882 29.9035 116.452 26.49 115.984 25.5994C115.558 24.7829 115.499 23.8161 115.813 22.8702C116.39 21.1626 118.458 19.2039 121.215 17.755C122.64 17.0102 122.659 17.006 124.534 17.1372C125.789 17.221 126.819 17.3566 127.991 17.5705Z" fill="#0059FF"/>
<path d="M145.747 28.4072C146.27 28.6085 146.847 28.9483 147.812 29.633C148.294 29.9754 148.818 30.3411 148.982 30.4471C149.748 30.9462 151.854 33.592 153.117 35.6419C155.745 39.9044 157.453 45.1616 157.854 50.2409C157.949 51.3949 157.931 51.8543 157.772 52.5767C157.327 54.6333 156.257 56.2692 153.371 59.3346L153.353 59.3535C152.545 60.207 152.528 60.2246 152.179 60.2939L151.822 60.363L151.092 59.9311C147.326 57.7142 143.954 55.2615 141.405 52.8968L140.688 52.2324L140.445 51.5176C139.78 49.5569 139.311 47.5667 138.522 43.3052C138.204 41.6029 137.879 39.9061 137.806 39.5319C137.604 38.556 137.587 38.314 137.67 37.533C137.769 36.6146 138.032 35.9035 138.631 34.9312C139.169 34.0536 139.702 33.3966 141.295 31.6651C141.961 30.9402 142.705 30.0656 142.96 29.7265C143.831 28.5432 144.047 28.3389 144.526 28.2448C144.819 28.1941 145.368 28.2655 145.747 28.4072Z" fill="#0059FF"/>
<path d="M116.731 51.8031C118.901 53.0402 120.972 54.7849 123.125 57.1703C123.841 57.9611 125.467 59.8413 125.697 60.144L125.9 60.4059L125.388 62.5628C124.26 67.371 123.393 70.5641 122.445 73.401C121.941 74.8953 121.665 75.3081 120.596 76.1732C119.439 77.1046 118.152 77.6745 115.862 78.2697C112.407 79.1636 111.546 79.3116 110.544 79.2044C109.58 79.1011 108.121 78.5278 107.057 77.8325C106.009 77.1579 105.08 76.3759 103.034 74.4507L102.923 74.3469C102.198 73.6701 101.44 72.9618 101.191 72.7367C100.296 71.9205 99.5162 70.7311 99.0502 69.4743C98.5995 68.2506 98.4613 67.2627 98.5618 65.9148C98.6324 64.905 98.7747 64.2188 99.103 63.2555C99.2284 62.9024 99.3949 62.282 99.4762 61.8736C100.219 58.2059 102.017 55.7254 104.651 54.7309C104.905 54.638 105.364 54.4976 105.679 54.4239C106.404 54.2488 107.054 54.0214 108.252 53.524C111.532 52.1627 112.397 51.8572 113.711 51.6188C114.445 51.4825 115.321 51.4183 115.86 51.4697C116.133 51.4926 116.313 51.5625 116.731 51.8031Z" fill="#0059FF"/>
<path d="M141.671 55.2572C145.878 57.9193 148.327 59.812 150.547 62.1033L151.139 62.7102L151.054 63.0929C151.013 63.2971 150.816 64.3187 150.617 65.359C149.867 69.3293 149.552 70.6921 148.976 72.4503C148.576 73.6714 147.778 74.7044 146.329 75.9016C145.033 76.9698 144.211 77.4568 140.369 79.4593C139.593 79.8629 138.596 80.4133 138.155 80.6758C136.35 81.7652 135.073 82.2921 134.11 82.3532C133.707 82.3796 133.639 82.366 133.002 82.1209C130.275 81.0643 127.493 79.2372 124.375 76.464C123.707 75.868 123.465 75.6146 123.475 75.5209C123.498 75.3085 124.044 73.0668 124.437 71.5606C124.892 69.8273 126.526 63.9105 126.569 63.8583C126.584 63.8346 126.731 63.2816 126.889 62.6224C127.418 60.4294 127.561 60.2045 129.125 59.2662C129.533 59.0192 130.48 58.4128 131.24 57.9191C133.049 56.7353 133.874 56.2232 134.723 55.7707C136.693 54.7241 138.332 54.255 139.997 54.2438C140.034 54.2477 140.793 54.7018 141.671 55.2572Z" fill="#0059FF"/>
<path d="M151.5 75.9876C152.063 76.3323 152.08 77.2314 151.544 78.3179C151.193 79.0322 150.857 79.4828 149.248 81.4211C146.619 84.59 143.073 87.3888 138.887 89.6137C136.135 91.0695 132.482 92.5298 130.882 92.8072C130.354 92.8959 130.16 92.8941 129.38 92.8169C128.576 92.7309 128.453 92.7051 128.195 92.5448C127.778 92.2978 127.547 92.0583 127.395 91.7198L127.264 91.4277L128.038 90.5121C130.266 87.8691 131.513 86.5619 133.094 85.2397C134.249 84.2639 134.903 83.8283 135.866 83.3627C137.658 82.512 139.307 81.6079 143.208 79.3526C146.255 77.5872 146.967 77.1895 148.472 76.3965C149.513 75.8507 149.605 75.81 150.039 75.7869C150.296 75.7766 150.548 75.7594 150.599 75.7522C150.776 75.7332 151.306 75.8721 151.5 75.9876Z" fill="#0059FF"/>
<path d="M119.245 91.9529C120.182 92.1354 121.201 92.3772 122.356 92.6905C122.86 92.8329 123.486 93.0011 123.754 93.0677C124.752 93.3325 125.345 93.693 125.228 93.9649C125.129 94.1881 124.469 94.3385 123.522 94.3635C123.265 94.3676 122.668 94.3921 122.203 94.4119C121.737 94.4378 120.635 94.4462 119.76 94.441C114.734 94.4084 111.156 93.703 108.642 92.2394C108.224 91.9925 108.217 91.9981 109.251 91.8055C111.16 91.4537 112.846 91.3563 115.389 91.4515C115.937 91.4723 118.442 91.7974 119.245 91.9529Z" fill="#0059FF"/>
<path d="M96.64 70.5432C97.2985 70.7022 97.5814 70.8652 98.2585 71.4938C99.1229 72.3004 99.9834 73.1446 101.285 74.4846C104.288 77.574 105.519 78.7041 107.191 79.9132C107.835 80.3803 107.931 80.479 108.181 80.8913C109.064 82.3951 109.725 84.3489 109.91 86.0623C109.965 86.5484 109.957 86.9078 109.88 87.6326C109.768 88.7328 109.606 89.1957 109.124 89.7823C108.844 90.1189 108.817 90.135 108.37 90.2198C107.227 90.4449 106.016 90.4733 104.501 90.311L103.524 90.2064L102.701 89.8276C98.9143 88.0951 95.217 85.2347 91.8757 81.4456C90.6543 80.0573 89.6975 78.8869 89.5041 78.5313C89.0441 77.6858 88.7781 76.6652 88.7205 75.5089C88.7063 75.1156 88.7429 74.2475 88.8321 73.2397L88.9696 71.6051L89.2807 71.5625C89.4461 71.536 90.0675 71.4003 90.653 71.2482C93.8087 70.4613 94.358 70.3558 95.3136 70.3696C95.8378 70.3815 96.0481 70.404 96.64 70.5432Z" fill="#0059FF"/>
<path d="M83.7308 54.9238C83.7406 55.007 83.7648 55.5404 83.7967 56.1188C83.9608 59.4351 84.6159 63.1324 85.6535 66.5864C86.0073 67.7807 86.972 70.4559 87.2026 70.8724C87.6033 71.6294 87.6241 72.6616 87.2556 73.766C87.1548 74.0648 87.0649 74.3206 87.0512 74.3318C87.0169 74.3597 85.8119 71.7093 85.2938 70.4721C84.7058 69.0695 83.8961 66.7584 83.5545 65.5086C83.1088 63.8873 82.5096 60.4866 82.3525 58.6815C82.3028 58.0948 82.31 57.7354 82.4009 56.8857C82.51 55.8673 82.5222 55.8118 82.7123 55.4972C82.9468 55.1179 83.1482 54.9309 83.4269 54.8407C83.6987 54.756 83.7166 54.7643 83.7308 54.9238Z" fill="#0059FF"/>
<mask id="path-3-outside-1_14_27" maskUnits="userSpaceOnUse" x="52.8218" y="78.3646" width="135" height="73" fill="black">
<rect fill="white" x="52.8218" y="78.3646" width="135" height="73"/>
<path d="M106.41 82.3646C107.054 82.3646 107.544 82.472 107.882 82.6866C108.25 82.8706 108.434 83.1466 108.434 83.5146C108.434 83.668 108.388 83.8673 108.296 84.1126C108.204 84.3886 108.066 84.6033 107.882 84.7566C107.728 84.8793 107.483 85.048 107.146 85.2626C106.655 85.5386 106.256 85.8453 105.95 86.1826C105.674 86.52 105.428 87.0413 105.214 87.7466L99.6018 107.527C99.4791 107.925 99.4178 108.309 99.4178 108.677C99.4178 109.014 99.4638 109.305 99.5558 109.551C99.6785 109.765 99.8318 110.026 100.016 110.333C100.138 110.486 100.246 110.655 100.338 110.839C100.43 110.992 100.476 111.161 100.476 111.345C100.476 111.406 100.445 111.559 100.384 111.805C100.261 112.203 99.9698 112.495 99.5098 112.679C99.0805 112.863 98.4518 112.955 97.6238 112.955H86.8138C86.1698 112.955 85.6638 112.847 85.2958 112.633C84.9585 112.418 84.7898 112.127 84.7898 111.759C84.7898 111.575 84.8358 111.375 84.9278 111.161C85.0198 110.946 85.1425 110.762 85.2958 110.609C85.4798 110.425 85.6331 110.302 85.7558 110.241C85.9091 110.149 86.0165 110.072 86.0778 110.011C86.5685 109.735 86.9671 109.428 87.2738 109.091C87.5805 108.753 87.8411 108.232 88.0558 107.527L91.5518 95.1066L79.6378 109.873C78.6565 111.069 77.8591 111.897 77.2458 112.357C76.6631 112.786 75.9885 113.001 75.2218 113.001C74.4858 113.001 73.9031 112.771 73.4738 112.311C73.0751 111.82 72.7071 111.007 72.3698 109.873L68.0458 95.6586L64.6418 107.573C64.5191 107.971 64.4578 108.355 64.4578 108.723C64.4578 109.091 64.5038 109.397 64.5958 109.643C64.7185 109.888 64.8871 110.149 65.1018 110.425C65.3778 110.823 65.5158 111.145 65.5158 111.391C65.5158 111.452 65.4851 111.605 65.4238 111.851C65.3011 112.28 65.0251 112.587 64.5958 112.771C64.1665 112.924 63.5225 113.001 62.6638 113.001H58.8458C58.2018 113.001 57.6958 112.893 57.3278 112.679C56.9905 112.464 56.8218 112.173 56.8218 111.805C56.8218 111.621 56.8678 111.421 56.9598 111.207C57.0825 110.869 57.2818 110.609 57.5578 110.425C57.8338 110.241 58.0025 110.133 58.0638 110.103C58.5545 109.796 58.9531 109.489 59.2598 109.183C59.5665 108.845 59.8271 108.309 60.0418 107.573L65.6538 87.7006L64.9178 85.2626C64.7645 84.8026 64.6878 84.358 64.6878 83.9286C64.6878 83.3766 64.8565 82.978 65.1938 82.7326C65.5618 82.4873 66.1138 82.3646 66.8498 82.3646H73.9798C74.8998 82.3646 75.5745 82.564 76.0038 82.9626C76.4638 83.3613 76.8318 84.0513 77.1078 85.0326L81.7078 100.305L94.1738 84.8026C94.9711 83.8213 95.7531 83.1773 96.5198 82.8706C97.2865 82.5333 98.2985 82.3646 99.5558 82.3646H106.41Z"/>
<path d="M120.217 88.4366C124.112 88.4366 126.933 89.0653 128.681 90.3226C130.429 91.5493 131.303 93.1286 131.303 95.0606C131.303 95.6433 131.242 96.18 131.119 96.6706C130.659 98.6946 129.371 100.151 127.255 101.041C125.17 101.899 122.701 102.329 119.849 102.329C118.408 102.329 117.058 102.237 115.801 102.053C115.77 103.647 116.2 104.767 117.089 105.411C117.978 106.055 119.22 106.377 120.815 106.377C121.551 106.377 122.256 106.3 122.931 106.147C123.606 105.963 124.464 105.702 125.507 105.365C126.366 105.058 126.948 104.905 127.255 104.905C127.592 104.905 127.761 105.104 127.761 105.503C127.792 106.576 127.393 107.711 126.565 108.907C125.737 110.072 124.51 111.069 122.885 111.897C121.26 112.725 119.297 113.139 116.997 113.139C113.593 113.139 110.802 112.28 108.625 110.563C106.448 108.845 105.359 106.346 105.359 103.065C105.359 102.145 105.482 101.071 105.727 99.8446C106.494 96.0726 108.165 93.236 110.741 91.3346C113.348 89.4026 116.506 88.4366 120.217 88.4366ZM116.123 99.2926C116.246 99.3233 116.414 99.3386 116.629 99.3386C117.917 99.3386 118.898 98.7406 119.573 97.5446C120.248 96.3486 120.57 95.0146 120.539 93.5426C120.508 92.684 120.263 92.2546 119.803 92.2546C119.466 92.2546 119.067 92.5306 118.607 93.0826C118.147 93.604 117.687 94.4013 117.227 95.4746C116.798 96.548 116.43 97.8206 116.123 99.2926Z"/>
<path d="M157.687 106.653C157.626 106.898 157.595 107.082 157.595 107.205C157.595 107.419 157.641 107.588 157.733 107.711C157.856 107.833 158.009 107.895 158.193 107.895C158.561 107.895 158.868 107.741 159.113 107.435C159.389 107.097 159.573 106.929 159.665 106.929C159.819 106.929 159.941 107.036 160.033 107.251C160.156 107.435 160.217 107.665 160.217 107.941C160.248 108.799 159.941 109.658 159.297 110.517C158.653 111.345 157.749 112.035 156.583 112.587C155.418 113.139 154.115 113.415 152.673 113.415C150.864 113.415 149.423 113.047 148.349 112.311C147.276 111.575 146.586 110.609 146.279 109.413C145.175 110.639 143.949 111.575 142.599 112.219C141.281 112.832 139.931 113.139 138.551 113.139C136.405 113.139 134.595 112.617 133.123 111.575C131.682 110.501 130.961 109.014 130.961 107.113C130.961 106.254 131.115 105.365 131.421 104.445L134.365 94.8306C134.457 94.5546 134.503 94.3246 134.503 94.1406C134.503 93.8033 134.427 93.5426 134.273 93.3586C134.12 93.144 133.89 92.9293 133.583 92.7146C133.277 92.4693 133.062 92.2546 132.939 92.0706C132.817 91.8866 132.801 91.6413 132.893 91.3346C133.077 90.6293 134.043 90.016 135.791 89.4946C137.539 88.9426 139.364 88.6666 141.265 88.6666C143.044 88.6666 144.347 89.004 145.175 89.6786C146.003 90.3533 146.417 91.2733 146.417 92.4386C146.417 93.144 146.31 93.8186 146.095 94.4626L143.197 104.031C143.075 104.368 143.013 104.69 143.013 104.997C143.013 105.426 143.136 105.748 143.381 105.963C143.627 106.177 143.949 106.285 144.347 106.285C144.93 106.285 145.405 106.116 145.773 105.779C146.141 105.441 146.509 104.874 146.877 104.077L149.683 94.8306C149.775 94.5546 149.821 94.3246 149.821 94.1406C149.821 93.8033 149.745 93.5426 149.591 93.3586C149.438 93.144 149.223 92.9293 148.947 92.7146C148.641 92.4693 148.426 92.2546 148.303 92.0706C148.181 91.8866 148.165 91.6413 148.257 91.3346C148.411 90.6293 149.361 90.016 151.109 89.4946C152.857 88.9426 154.682 88.6666 156.583 88.6666C158.362 88.6666 159.665 89.004 160.493 89.6786C161.352 90.3533 161.781 91.258 161.781 92.3926C161.781 92.9753 161.659 93.6653 161.413 94.4626L157.687 106.653Z"/>
<path d="M93.8518 115.365C95.5385 115.365 96.3818 116.055 96.3818 117.435C96.3818 117.864 96.2898 118.401 96.1058 119.045L95.0018 122.771C94.6645 123.905 94.2505 124.703 93.7598 125.163C93.2691 125.623 92.5638 125.853 91.6438 125.853C90.8771 125.853 90.2791 125.653 89.8498 125.255C89.4511 124.856 89.0678 124.227 88.6998 123.369L87.9178 121.483C87.6725 120.9 87.4118 120.501 87.1358 120.287C86.8598 120.072 86.4305 119.965 85.8478 119.965H84.7898L78.9478 140.527C78.8558 140.925 78.8098 141.278 78.8098 141.585C78.8098 141.953 78.8558 142.259 78.9478 142.505C79.0705 142.75 79.2391 143.011 79.4538 143.287C79.7298 143.716 79.8678 144.069 79.8678 144.345C79.8678 144.406 79.8371 144.559 79.7758 144.805C79.6225 145.203 79.3158 145.495 78.8558 145.679C78.4265 145.863 77.7978 145.955 76.9698 145.955H66.1598C65.5158 145.955 65.0098 145.847 64.6418 145.633C64.3045 145.418 64.1358 145.111 64.1358 144.713C64.1358 144.529 64.1818 144.345 64.2738 144.161C64.3965 143.885 64.5345 143.685 64.6878 143.563C64.8718 143.409 65.1325 143.225 65.4698 143.011C65.9298 142.735 66.3131 142.428 66.6198 142.091C66.9265 141.753 67.1871 141.232 67.4018 140.527L73.1978 119.965H72.1398C71.4651 119.965 70.9131 120.072 70.4838 120.287C70.0545 120.501 69.5945 120.9 69.1038 121.483L67.5858 123.369C66.8805 124.197 66.1905 124.825 65.5158 125.255C64.8718 125.653 64.1665 125.853 63.3998 125.853C62.6945 125.853 62.1425 125.669 61.7438 125.301C61.3451 124.933 61.1458 124.427 61.1458 123.783C61.1458 123.476 61.1918 123.139 61.2838 122.771L62.4798 118.585C62.7251 117.726 63.0011 117.082 63.3078 116.653C63.6145 116.193 64.0438 115.871 64.5958 115.687C65.1785 115.472 65.9911 115.365 67.0338 115.365H93.8518Z"/>
<path d="M104.008 121.667C105.787 121.667 107.09 122.004 107.918 122.679C108.746 123.353 109.16 124.273 109.16 125.439C109.16 126.144 109.053 126.819 108.838 127.463L104.606 141.217C104.514 141.585 104.468 141.907 104.468 142.183C104.468 142.581 104.545 142.903 104.698 143.149C104.851 143.363 105.066 143.578 105.342 143.793C105.557 144.007 105.71 144.191 105.802 144.345C105.894 144.467 105.909 144.636 105.848 144.851C105.695 145.249 105.388 145.541 104.928 145.725C104.468 145.909 103.763 146.001 102.812 146.001H92.3241C91.5268 146.001 90.9441 145.878 90.5761 145.633C90.2081 145.357 90.0854 145.004 90.2081 144.575C90.3308 144.207 90.6528 143.885 91.1741 143.609C91.6341 143.363 92.0174 143.072 92.3241 142.735C92.6308 142.397 92.8914 141.861 93.1061 141.125L97.1081 127.831C97.2001 127.555 97.2461 127.325 97.2461 127.141C97.2461 126.803 97.1694 126.543 97.0161 126.359C96.8628 126.144 96.6328 125.929 96.3261 125.715C96.0194 125.469 95.8048 125.255 95.6821 125.071C95.5594 124.887 95.5441 124.641 95.6361 124.335C95.8201 123.629 96.7861 123.016 98.5341 122.495C100.282 121.943 102.107 121.667 104.008 121.667ZM107.09 111.501C108.286 111.501 109.283 111.899 110.08 112.697C110.877 113.463 111.276 114.414 111.276 115.549C111.276 116.346 111.061 117.128 110.632 117.895C110.233 118.661 109.651 119.29 108.884 119.781C108.148 120.241 107.32 120.471 106.4 120.471C105.235 120.471 104.253 120.087 103.456 119.321C102.689 118.523 102.291 117.542 102.26 116.377C102.26 115.61 102.459 114.859 102.858 114.123C103.257 113.356 103.824 112.727 104.56 112.237C105.296 111.746 106.139 111.501 107.09 111.501Z"/>
<path d="M152.502 139.653C152.44 139.775 152.41 139.959 152.41 140.205C152.41 140.419 152.456 140.588 152.548 140.711C152.67 140.833 152.824 140.895 153.008 140.895C153.376 140.895 153.682 140.741 153.928 140.435C154.204 140.097 154.388 139.929 154.48 139.929C154.633 139.929 154.756 140.036 154.848 140.251C154.94 140.435 154.986 140.665 154.986 140.941C155.016 141.83 154.725 142.704 154.112 143.563C153.498 144.391 152.594 145.081 151.398 145.633C150.232 146.154 148.822 146.415 147.166 146.415C145.142 146.415 143.532 145.955 142.336 145.035C141.14 144.084 140.526 142.827 140.496 141.263C140.496 140.128 140.772 138.855 141.324 137.445L143.854 130.821C144.007 130.422 144.084 130.1 144.084 129.855C144.084 129.456 143.946 129.149 143.67 128.935C143.424 128.689 143.118 128.567 142.75 128.567C142.228 128.567 141.692 128.797 141.14 129.257C140.588 129.717 140.097 130.437 139.668 131.419L137.138 139.653C137.076 139.775 137.046 139.959 137.046 140.205C137.046 140.419 137.092 140.588 137.184 140.711C137.306 140.833 137.46 140.895 137.644 140.895C138.012 140.895 138.318 140.741 138.564 140.435C138.84 140.097 139.024 139.929 139.116 139.929C139.269 139.929 139.392 140.036 139.484 140.251C139.576 140.435 139.622 140.665 139.622 140.941C139.652 141.83 139.361 142.704 138.748 143.563C138.134 144.391 137.23 145.081 136.034 145.633C134.868 146.154 133.458 146.415 131.802 146.415C129.778 146.415 128.168 145.955 126.972 145.035C125.776 144.084 125.162 142.827 125.132 141.263C125.132 140.128 125.408 138.855 125.96 137.445L128.49 130.821C128.643 130.422 128.72 130.1 128.72 129.855C128.72 129.456 128.582 129.149 128.306 128.935C128.06 128.689 127.754 128.567 127.386 128.567C126.864 128.567 126.328 128.797 125.776 129.257C125.224 129.686 124.764 130.391 124.396 131.373L121.36 141.217C121.237 141.554 121.176 141.876 121.176 142.183C121.176 142.551 121.252 142.857 121.406 143.103C121.559 143.317 121.774 143.547 122.05 143.793C122.264 143.977 122.418 144.145 122.51 144.299C122.602 144.452 122.617 144.636 122.556 144.851C122.433 145.249 122.142 145.541 121.682 145.725C121.222 145.909 120.501 146.001 119.52 146.001H109.032C108.234 146.001 107.667 145.878 107.33 145.633C106.962 145.357 106.824 145.004 106.916 144.575C107.038 144.207 107.36 143.885 107.882 143.609C108.342 143.363 108.725 143.072 109.032 142.735C109.338 142.397 109.599 141.861 109.814 141.125L113.908 127.831C113.969 127.677 114 127.463 114 127.187C114 126.849 113.923 126.589 113.77 126.405C113.647 126.221 113.432 125.991 113.126 125.715C112.819 125.469 112.604 125.255 112.482 125.071C112.359 124.887 112.344 124.641 112.436 124.335C112.62 123.629 113.586 123.016 115.334 122.495C117.082 121.943 118.906 121.667 120.808 121.667C122.31 121.667 123.491 122.081 124.35 122.909C125.239 123.737 125.668 124.871 125.638 126.313C126.895 124.565 128.214 123.353 129.594 122.679C131.004 122.004 132.522 121.667 134.148 121.667C135.926 121.667 137.368 122.188 138.472 123.231C139.606 124.243 140.235 125.577 140.358 127.233C141.676 125.147 143.087 123.706 144.59 122.909C146.092 122.081 147.733 121.667 149.512 121.667C151.382 121.667 152.885 122.234 154.02 123.369C155.185 124.503 155.768 125.975 155.768 127.785C155.768 128.735 155.614 129.671 155.308 130.591L152.502 139.653Z"/>
<path d="M172.551 121.437C176.446 121.437 179.267 122.065 181.015 123.323C182.763 124.549 183.637 126.129 183.637 128.061C183.637 128.643 183.576 129.18 183.453 129.671C182.993 131.695 181.705 133.151 179.589 134.041C177.504 134.899 175.035 135.329 172.183 135.329C170.742 135.329 169.392 135.237 168.135 135.053C168.104 136.647 168.534 137.767 169.423 138.411C170.312 139.055 171.554 139.377 173.149 139.377C173.885 139.377 174.59 139.3 175.265 139.147C175.94 138.963 176.798 138.702 177.841 138.365C178.7 138.058 179.282 137.905 179.589 137.905C179.926 137.905 180.095 138.104 180.095 138.503C180.126 139.576 179.727 140.711 178.899 141.907C178.071 143.072 176.844 144.069 175.219 144.897C173.594 145.725 171.631 146.139 169.331 146.139C165.927 146.139 163.136 145.28 160.959 143.563C158.782 141.845 157.693 139.346 157.693 136.065C157.693 135.145 157.816 134.071 158.061 132.845C158.828 129.073 160.499 126.236 163.075 124.335C165.682 122.403 168.84 121.437 172.551 121.437ZM168.457 132.293C168.58 132.323 168.748 132.339 168.963 132.339C170.251 132.339 171.232 131.741 171.907 130.545C172.582 129.349 172.904 128.015 172.873 126.543C172.842 125.684 172.597 125.255 172.137 125.255C171.8 125.255 171.401 125.531 170.941 126.083C170.481 126.604 170.021 127.401 169.561 128.475C169.132 129.548 168.764 130.821 168.457 132.293Z"/>
</mask>
<path d="M106.41 82.3646C107.054 82.3646 107.544 82.472 107.882 82.6866C108.25 82.8706 108.434 83.1466 108.434 83.5146C108.434 83.668 108.388 83.8673 108.296 84.1126C108.204 84.3886 108.066 84.6033 107.882 84.7566C107.728 84.8793 107.483 85.048 107.146 85.2626C106.655 85.5386 106.256 85.8453 105.95 86.1826C105.674 86.52 105.428 87.0413 105.214 87.7466L99.6018 107.527C99.4791 107.925 99.4178 108.309 99.4178 108.677C99.4178 109.014 99.4638 109.305 99.5558 109.551C99.6785 109.765 99.8318 110.026 100.016 110.333C100.138 110.486 100.246 110.655 100.338 110.839C100.43 110.992 100.476 111.161 100.476 111.345C100.476 111.406 100.445 111.559 100.384 111.805C100.261 112.203 99.9698 112.495 99.5098 112.679C99.0805 112.863 98.4518 112.955 97.6238 112.955H86.8138C86.1698 112.955 85.6638 112.847 85.2958 112.633C84.9585 112.418 84.7898 112.127 84.7898 111.759C84.7898 111.575 84.8358 111.375 84.9278 111.161C85.0198 110.946 85.1425 110.762 85.2958 110.609C85.4798 110.425 85.6331 110.302 85.7558 110.241C85.9091 110.149 86.0165 110.072 86.0778 110.011C86.5685 109.735 86.9671 109.428 87.2738 109.091C87.5805 108.753 87.8411 108.232 88.0558 107.527L91.5518 95.1066L79.6378 109.873C78.6565 111.069 77.8591 111.897 77.2458 112.357C76.6631 112.786 75.9885 113.001 75.2218 113.001C74.4858 113.001 73.9031 112.771 73.4738 112.311C73.0751 111.82 72.7071 111.007 72.3698 109.873L68.0458 95.6586L64.6418 107.573C64.5191 107.971 64.4578 108.355 64.4578 108.723C64.4578 109.091 64.5038 109.397 64.5958 109.643C64.7185 109.888 64.8871 110.149 65.1018 110.425C65.3778 110.823 65.5158 111.145 65.5158 111.391C65.5158 111.452 65.4851 111.605 65.4238 111.851C65.3011 112.28 65.0251 112.587 64.5958 112.771C64.1665 112.924 63.5225 113.001 62.6638 113.001H58.8458C58.2018 113.001 57.6958 112.893 57.3278 112.679C56.9905 112.464 56.8218 112.173 56.8218 111.805C56.8218 111.621 56.8678 111.421 56.9598 111.207C57.0825 110.869 57.2818 110.609 57.5578 110.425C57.8338 110.241 58.0025 110.133 58.0638 110.103C58.5545 109.796 58.9531 109.489 59.2598 109.183C59.5665 108.845 59.8271 108.309 60.0418 107.573L65.6538 87.7006L64.9178 85.2626C64.7645 84.8026 64.6878 84.358 64.6878 83.9286C64.6878 83.3766 64.8565 82.978 65.1938 82.7326C65.5618 82.4873 66.1138 82.3646 66.8498 82.3646H73.9798C74.8998 82.3646 75.5745 82.564 76.0038 82.9626C76.4638 83.3613 76.8318 84.0513 77.1078 85.0326L81.7078 100.305L94.1738 84.8026C94.9711 83.8213 95.7531 83.1773 96.5198 82.8706C97.2865 82.5333 98.2985 82.3646 99.5558 82.3646H106.41Z" fill="#0059FF"/>
<path d="M120.217 88.4366C124.112 88.4366 126.933 89.0653 128.681 90.3226C130.429 91.5493 131.303 93.1286 131.303 95.0606C131.303 95.6433 131.242 96.18 131.119 96.6706C130.659 98.6946 129.371 100.151 127.255 101.041C125.17 101.899 122.701 102.329 119.849 102.329C118.408 102.329 117.058 102.237 115.801 102.053C115.77 103.647 116.2 104.767 117.089 105.411C117.978 106.055 119.22 106.377 120.815 106.377C121.551 106.377 122.256 106.3 122.931 106.147C123.606 105.963 124.464 105.702 125.507 105.365C126.366 105.058 126.948 104.905 127.255 104.905C127.592 104.905 127.761 105.104 127.761 105.503C127.792 106.576 127.393 107.711 126.565 108.907C125.737 110.072 124.51 111.069 122.885 111.897C121.26 112.725 119.297 113.139 116.997 113.139C113.593 113.139 110.802 112.28 108.625 110.563C106.448 108.845 105.359 106.346 105.359 103.065C105.359 102.145 105.482 101.071 105.727 99.8446C106.494 96.0726 108.165 93.236 110.741 91.3346C113.348 89.4026 116.506 88.4366 120.217 88.4366ZM116.123 99.2926C116.246 99.3233 116.414 99.3386 116.629 99.3386C117.917 99.3386 118.898 98.7406 119.573 97.5446C120.248 96.3486 120.57 95.0146 120.539 93.5426C120.508 92.684 120.263 92.2546 119.803 92.2546C119.466 92.2546 119.067 92.5306 118.607 93.0826C118.147 93.604 117.687 94.4013 117.227 95.4746C116.798 96.548 116.43 97.8206 116.123 99.2926Z" fill="#0059FF"/>
<path d="M157.687 106.653C157.626 106.898 157.595 107.082 157.595 107.205C157.595 107.419 157.641 107.588 157.733 107.711C157.856 107.833 158.009 107.895 158.193 107.895C158.561 107.895 158.868 107.741 159.113 107.435C159.389 107.097 159.573 106.929 159.665 106.929C159.819 106.929 159.941 107.036 160.033 107.251C160.156 107.435 160.217 107.665 160.217 107.941C160.248 108.799 159.941 109.658 159.297 110.517C158.653 111.345 157.749 112.035 156.583 112.587C155.418 113.139 154.115 113.415 152.673 113.415C150.864 113.415 149.423 113.047 148.349 112.311C147.276 111.575 146.586 110.609 146.279 109.413C145.175 110.639 143.949 111.575 142.599 112.219C141.281 112.832 139.931 113.139 138.551 113.139C136.405 113.139 134.595 112.617 133.123 111.575C131.682 110.501 130.961 109.014 130.961 107.113C130.961 106.254 131.115 105.365 131.421 104.445L134.365 94.8306C134.457 94.5546 134.503 94.3246 134.503 94.1406C134.503 93.8033 134.427 93.5426 134.273 93.3586C134.12 93.144 133.89 92.9293 133.583 92.7146C133.277 92.4693 133.062 92.2546 132.939 92.0706C132.817 91.8866 132.801 91.6413 132.893 91.3346C133.077 90.6293 134.043 90.016 135.791 89.4946C137.539 88.9426 139.364 88.6666 141.265 88.6666C143.044 88.6666 144.347 89.004 145.175 89.6786C146.003 90.3533 146.417 91.2733 146.417 92.4386C146.417 93.144 146.31 93.8186 146.095 94.4626L143.197 104.031C143.075 104.368 143.013 104.69 143.013 104.997C143.013 105.426 143.136 105.748 143.381 105.963C143.627 106.177 143.949 106.285 144.347 106.285C144.93 106.285 145.405 106.116 145.773 105.779C146.141 105.441 146.509 104.874 146.877 104.077L149.683 94.8306C149.775 94.5546 149.821 94.3246 149.821 94.1406C149.821 93.8033 149.745 93.5426 149.591 93.3586C149.438 93.144 149.223 92.9293 148.947 92.7146C148.641 92.4693 148.426 92.2546 148.303 92.0706C148.181 91.8866 148.165 91.6413 148.257 91.3346C148.411 90.6293 149.361 90.016 151.109 89.4946C152.857 88.9426 154.682 88.6666 156.583 88.6666C158.362 88.6666 159.665 89.004 160.493 89.6786C161.352 90.3533 161.781 91.258 161.781 92.3926C161.781 92.9753 161.659 93.6653 161.413 94.4626L157.687 106.653Z" fill="#0059FF"/>
<path d="M93.8518 115.365C95.5385 115.365 96.3818 116.055 96.3818 117.435C96.3818 117.864 96.2898 118.401 96.1058 119.045L95.0018 122.771C94.6645 123.905 94.2505 124.703 93.7598 125.163C93.2691 125.623 92.5638 125.853 91.6438 125.853C90.8771 125.853 90.2791 125.653 89.8498 125.255C89.4511 124.856 89.0678 124.227 88.6998 123.369L87.9178 121.483C87.6725 120.9 87.4118 120.501 87.1358 120.287C86.8598 120.072 86.4305 119.965 85.8478 119.965H84.7898L78.9478 140.527C78.8558 140.925 78.8098 141.278 78.8098 141.585C78.8098 141.953 78.8558 142.259 78.9478 142.505C79.0705 142.75 79.2391 143.011 79.4538 143.287C79.7298 143.716 79.8678 144.069 79.8678 144.345C79.8678 144.406 79.8371 144.559 79.7758 144.805C79.6225 145.203 79.3158 145.495 78.8558 145.679C78.4265 145.863 77.7978 145.955 76.9698 145.955H66.1598C65.5158 145.955 65.0098 145.847 64.6418 145.633C64.3045 145.418 64.1358 145.111 64.1358 144.713C64.1358 144.529 64.1818 144.345 64.2738 144.161C64.3965 143.885 64.5345 143.685 64.6878 143.563C64.8718 143.409 65.1325 143.225 65.4698 143.011C65.9298 142.735 66.3131 142.428 66.6198 142.091C66.9265 141.753 67.1871 141.232 67.4018 140.527L73.1978 119.965H72.1398C71.4651 119.965 70.9131 120.072 70.4838 120.287C70.0545 120.501 69.5945 120.9 69.1038 121.483L67.5858 123.369C66.8805 124.197 66.1905 124.825 65.5158 125.255C64.8718 125.653 64.1665 125.853 63.3998 125.853C62.6945 125.853 62.1425 125.669 61.7438 125.301C61.3451 124.933 61.1458 124.427 61.1458 123.783C61.1458 123.476 61.1918 123.139 61.2838 122.771L62.4798 118.585C62.7251 117.726 63.0011 117.082 63.3078 116.653C63.6145 116.193 64.0438 115.871 64.5958 115.687C65.1785 115.472 65.9911 115.365 67.0338 115.365H93.8518Z" fill="#0059FF"/>
<path d="M104.008 121.667C105.787 121.667 107.09 122.004 107.918 122.679C108.746 123.353 109.16 124.273 109.16 125.439C109.16 126.144 109.053 126.819 108.838 127.463L104.606 141.217C104.514 141.585 104.468 141.907 104.468 142.183C104.468 142.581 104.545 142.903 104.698 143.149C104.851 143.363 105.066 143.578 105.342 143.793C105.557 144.007 105.71 144.191 105.802 144.345C105.894 144.467 105.909 144.636 105.848 144.851C105.695 145.249 105.388 145.541 104.928 145.725C104.468 145.909 103.763 146.001 102.812 146.001H92.3241C91.5268 146.001 90.9441 145.878 90.5761 145.633C90.2081 145.357 90.0854 145.004 90.2081 144.575C90.3308 144.207 90.6528 143.885 91.1741 143.609C91.6341 143.363 92.0174 143.072 92.3241 142.735C92.6308 142.397 92.8914 141.861 93.1061 141.125L97.1081 127.831C97.2001 127.555 97.2461 127.325 97.2461 127.141C97.2461 126.803 97.1694 126.543 97.0161 126.359C96.8628 126.144 96.6328 125.929 96.3261 125.715C96.0194 125.469 95.8048 125.255 95.6821 125.071C95.5594 124.887 95.5441 124.641 95.6361 124.335C95.8201 123.629 96.7861 123.016 98.5341 122.495C100.282 121.943 102.107 121.667 104.008 121.667ZM107.09 111.501C108.286 111.501 109.283 111.899 110.08 112.697C110.877 113.463 111.276 114.414 111.276 115.549C111.276 116.346 111.061 117.128 110.632 117.895C110.233 118.661 109.651 119.29 108.884 119.781C108.148 120.241 107.32 120.471 106.4 120.471C105.235 120.471 104.253 120.087 103.456 119.321C102.689 118.523 102.291 117.542 102.26 116.377C102.26 115.61 102.459 114.859 102.858 114.123C103.257 113.356 103.824 112.727 104.56 112.237C105.296 111.746 106.139 111.501 107.09 111.501Z" fill="#0059FF"/>
<path d="M152.502 139.653C152.44 139.775 152.41 139.959 152.41 140.205C152.41 140.419 152.456 140.588 152.548 140.711C152.67 140.833 152.824 140.895 153.008 140.895C153.376 140.895 153.682 140.741 153.928 140.435C154.204 140.097 154.388 139.929 154.48 139.929C154.633 139.929 154.756 140.036 154.848 140.251C154.94 140.435 154.986 140.665 154.986 140.941C155.016 141.83 154.725 142.704 154.112 143.563C153.498 144.391 152.594 145.081 151.398 145.633C150.232 146.154 148.822 146.415 147.166 146.415C145.142 146.415 143.532 145.955 142.336 145.035C141.14 144.084 140.526 142.827 140.496 141.263C140.496 140.128 140.772 138.855 141.324 137.445L143.854 130.821C144.007 130.422 144.084 130.1 144.084 129.855C144.084 129.456 143.946 129.149 143.67 128.935C143.424 128.689 143.118 128.567 142.75 128.567C142.228 128.567 141.692 128.797 141.14 129.257C140.588 129.717 140.097 130.437 139.668 131.419L137.138 139.653C137.076 139.775 137.046 139.959 137.046 140.205C137.046 140.419 137.092 140.588 137.184 140.711C137.306 140.833 137.46 140.895 137.644 140.895C138.012 140.895 138.318 140.741 138.564 140.435C138.84 140.097 139.024 139.929 139.116 139.929C139.269 139.929 139.392 140.036 139.484 140.251C139.576 140.435 139.622 140.665 139.622 140.941C139.652 141.83 139.361 142.704 138.748 143.563C138.134 144.391 137.23 145.081 136.034 145.633C134.868 146.154 133.458 146.415 131.802 146.415C129.778 146.415 128.168 145.955 126.972 145.035C125.776 144.084 125.162 142.827 125.132 141.263C125.132 140.128 125.408 138.855 125.96 137.445L128.49 130.821C128.643 130.422 128.72 130.1 128.72 129.855C128.72 129.456 128.582 129.149 128.306 128.935C128.06 128.689 127.754 128.567 127.386 128.567C126.864 128.567 126.328 128.797 125.776 129.257C125.224 129.686 124.764 130.391 124.396 131.373L121.36 141.217C121.237 141.554 121.176 141.876 121.176 142.183C121.176 142.551 121.252 142.857 121.406 143.103C121.559 143.317 121.774 143.547 122.05 143.793C122.264 143.977 122.418 144.145 122.51 144.299C122.602 144.452 122.617 144.636 122.556 144.851C122.433 145.249 122.142 145.541 121.682 145.725C121.222 145.909 120.501 146.001 119.52 146.001H109.032C108.234 146.001 107.667 145.878 107.33 145.633C106.962 145.357 106.824 145.004 106.916 144.575C107.038 144.207 107.36 143.885 107.882 143.609C108.342 143.363 108.725 143.072 109.032 142.735C109.338 142.397 109.599 141.861 109.814 141.125L113.908 127.831C113.969 127.677 114 127.463 114 127.187C114 126.849 113.923 126.589 113.77 126.405C113.647 126.221 113.432 125.991 113.126 125.715C112.819 125.469 112.604 125.255 112.482 125.071C112.359 124.887 112.344 124.641 112.436 124.335C112.62 123.629 113.586 123.016 115.334 122.495C117.082 121.943 118.906 121.667 120.808 121.667C122.31 121.667 123.491 122.081 124.35 122.909C125.239 123.737 125.668 124.871 125.638 126.313C126.895 124.565 128.214 123.353 129.594 122.679C131.004 122.004 132.522 121.667 134.148 121.667C135.926 121.667 137.368 122.188 138.472 123.231C139.606 124.243 140.235 125.577 140.358 127.233C141.676 125.147 143.087 123.706 144.59 122.909C146.092 122.081 147.733 121.667 149.512 121.667C151.382 121.667 152.885 122.234 154.02 123.369C155.185 124.503 155.768 125.975 155.768 127.785C155.768 128.735 155.614 129.671 155.308 130.591L152.502 139.653Z" fill="#0059FF"/>
<path d="M172.551 121.437C176.446 121.437 179.267 122.065 181.015 123.323C182.763 124.549 183.637 126.129 183.637 128.061C183.637 128.643 183.576 129.18 183.453 129.671C182.993 131.695 181.705 133.151 179.589 134.041C177.504 134.899 175.035 135.329 172.183 135.329C170.742 135.329 169.392 135.237 168.135 135.053C168.104 136.647 168.534 137.767 169.423 138.411C170.312 139.055 171.554 139.377 173.149 139.377C173.885 139.377 174.59 139.3 175.265 139.147C175.94 138.963 176.798 138.702 177.841 138.365C178.7 138.058 179.282 137.905 179.589 137.905C179.926 137.905 180.095 138.104 180.095 138.503C180.126 139.576 179.727 140.711 178.899 141.907C178.071 143.072 176.844 144.069 175.219 144.897C173.594 145.725 171.631 146.139 169.331 146.139C165.927 146.139 163.136 145.28 160.959 143.563C158.782 141.845 157.693 139.346 157.693 136.065C157.693 135.145 157.816 134.071 158.061 132.845C158.828 129.073 160.499 126.236 163.075 124.335C165.682 122.403 168.84 121.437 172.551 121.437ZM168.457 132.293C168.58 132.323 168.748 132.339 168.963 132.339C170.251 132.339 171.232 131.741 171.907 130.545C172.582 129.349 172.904 128.015 172.873 126.543C172.842 125.684 172.597 125.255 172.137 125.255C171.8 125.255 171.401 125.531 170.941 126.083C170.481 126.604 170.021 127.401 169.561 128.475C169.132 129.548 168.764 130.821 168.457 132.293Z" fill="#0059FF"/>
<path d="M106.41 82.3646C107.054 82.3646 107.544 82.472 107.882 82.6866C108.25 82.8706 108.434 83.1466 108.434 83.5146C108.434 83.668 108.388 83.8673 108.296 84.1126C108.204 84.3886 108.066 84.6033 107.882 84.7566C107.728 84.8793 107.483 85.048 107.146 85.2626C106.655 85.5386 106.256 85.8453 105.95 86.1826C105.674 86.52 105.428 87.0413 105.214 87.7466L99.6018 107.527C99.4791 107.925 99.4178 108.309 99.4178 108.677C99.4178 109.014 99.4638 109.305 99.5558 109.551C99.6785 109.765 99.8318 110.026 100.016 110.333C100.138 110.486 100.246 110.655 100.338 110.839C100.43 110.992 100.476 111.161 100.476 111.345C100.476 111.406 100.445 111.559 100.384 111.805C100.261 112.203 99.9698 112.495 99.5098 112.679C99.0805 112.863 98.4518 112.955 97.6238 112.955H86.8138C86.1698 112.955 85.6638 112.847 85.2958 112.633C84.9585 112.418 84.7898 112.127 84.7898 111.759C84.7898 111.575 84.8358 111.375 84.9278 111.161C85.0198 110.946 85.1425 110.762 85.2958 110.609C85.4798 110.425 85.6331 110.302 85.7558 110.241C85.9091 110.149 86.0165 110.072 86.0778 110.011C86.5685 109.735 86.9671 109.428 87.2738 109.091C87.5805 108.753 87.8411 108.232 88.0558 107.527L91.5518 95.1066L79.6378 109.873C78.6565 111.069 77.8591 111.897 77.2458 112.357C76.6631 112.786 75.9885 113.001 75.2218 113.001C74.4858 113.001 73.9031 112.771 73.4738 112.311C73.0751 111.82 72.7071 111.007 72.3698 109.873L68.0458 95.6586L64.6418 107.573C64.5191 107.971 64.4578 108.355 64.4578 108.723C64.4578 109.091 64.5038 109.397 64.5958 109.643C64.7185 109.888 64.8871 110.149 65.1018 110.425C65.3778 110.823 65.5158 111.145 65.5158 111.391C65.5158 111.452 65.4851 111.605 65.4238 111.851C65.3011 112.28 65.0251 112.587 64.5958 112.771C64.1665 112.924 63.5225 113.001 62.6638 113.001H58.8458C58.2018 113.001 57.6958 112.893 57.3278 112.679C56.9905 112.464 56.8218 112.173 56.8218 111.805C56.8218 111.621 56.8678 111.421 56.9598 111.207C57.0825 110.869 57.2818 110.609 57.5578 110.425C57.8338 110.241 58.0025 110.133 58.0638 110.103C58.5545 109.796 58.9531 109.489 59.2598 109.183C59.5665 108.845 59.8271 108.309 60.0418 107.573L65.6538 87.7006L64.9178 85.2626C64.7645 84.8026 64.6878 84.358 64.6878 83.9286C64.6878 83.3766 64.8565 82.978 65.1938 82.7326C65.5618 82.4873 66.1138 82.3646 66.8498 82.3646H73.9798C74.8998 82.3646 75.5745 82.564 76.0038 82.9626C76.4638 83.3613 76.8318 84.0513 77.1078 85.0326L81.7078 100.305L94.1738 84.8026C94.9711 83.8213 95.7531 83.1773 96.5198 82.8706C97.2865 82.5333 98.2985 82.3646 99.5558 82.3646H106.41Z" stroke="#FED100" stroke-width="8" mask="url(#path-3-outside-1_14_27)"/>
<path d="M120.217 88.4366C124.112 88.4366 126.933 89.0653 128.681 90.3226C130.429 91.5493 131.303 93.1286 131.303 95.0606C131.303 95.6433 131.242 96.18 131.119 96.6706C130.659 98.6946 129.371 100.151 127.255 101.041C125.17 101.899 122.701 102.329 119.849 102.329C118.408 102.329 117.058 102.237 115.801 102.053C115.77 103.647 116.2 104.767 117.089 105.411C117.978 106.055 119.22 106.377 120.815 106.377C121.551 106.377 122.256 106.3 122.931 106.147C123.606 105.963 124.464 105.702 125.507 105.365C126.366 105.058 126.948 104.905 127.255 104.905C127.592 104.905 127.761 105.104 127.761 105.503C127.792 106.576 127.393 107.711 126.565 108.907C125.737 110.072 124.51 111.069 122.885 111.897C121.26 112.725 119.297 113.139 116.997 113.139C113.593 113.139 110.802 112.28 108.625 110.563C106.448 108.845 105.359 106.346 105.359 103.065C105.359 102.145 105.482 101.071 105.727 99.8446C106.494 96.0726 108.165 93.236 110.741 91.3346C113.348 89.4026 116.506 88.4366 120.217 88.4366ZM116.123 99.2926C116.246 99.3233 116.414 99.3386 116.629 99.3386C117.917 99.3386 118.898 98.7406 119.573 97.5446C120.248 96.3486 120.57 95.0146 120.539 93.5426C120.508 92.684 120.263 92.2546 119.803 92.2546C119.466 92.2546 119.067 92.5306 118.607 93.0826C118.147 93.604 117.687 94.4013 117.227 95.4746C116.798 96.548 116.43 97.8206 116.123 99.2926Z" stroke="#FED100" stroke-width="8" mask="url(#path-3-outside-1_14_27)"/>
<path d="M157.687 106.653C157.626 106.898 157.595 107.082 157.595 107.205C157.595 107.419 157.641 107.588 157.733 107.711C157.856 107.833 158.009 107.895 158.193 107.895C158.561 107.895 158.868 107.741 159.113 107.435C159.389 107.097 159.573 106.929 159.665 106.929C159.819 106.929 159.941 107.036 160.033 107.251C160.156 107.435 160.217 107.665 160.217 107.941C160.248 108.799 159.941 109.658 159.297 110.517C158.653 111.345 157.749 112.035 156.583 112.587C155.418 113.139 154.115 113.415 152.673 113.415C150.864 113.415 149.423 113.047 148.349 112.311C147.276 111.575 146.586 110.609 146.279 109.413C145.175 110.639 143.949 111.575 142.599 112.219C141.281 112.832 139.931 113.139 138.551 113.139C136.405 113.139 134.595 112.617 133.123 111.575C131.682 110.501 130.961 109.014 130.961 107.113C130.961 106.254 131.115 105.365 131.421 104.445L134.365 94.8306C134.457 94.5546 134.503 94.3246 134.503 94.1406C134.503 93.8033 134.427 93.5426 134.273 93.3586C134.12 93.144 133.89 92.9293 133.583 92.7146C133.277 92.4693 133.062 92.2546 132.939 92.0706C132.817 91.8866 132.801 91.6413 132.893 91.3346C133.077 90.6293 134.043 90.016 135.791 89.4946C137.539 88.9426 139.364 88.6666 141.265 88.6666C143.044 88.6666 144.347 89.004 145.175 89.6786C146.003 90.3533 146.417 91.2733 146.417 92.4386C146.417 93.144 146.31 93.8186 146.095 94.4626L143.197 104.031C143.075 104.368 143.013 104.69 143.013 104.997C143.013 105.426 143.136 105.748 143.381 105.963C143.627 106.177 143.949 106.285 144.347 106.285C144.93 106.285 145.405 106.116 145.773 105.779C146.141 105.441 146.509 104.874 146.877 104.077L149.683 94.8306C149.775 94.5546 149.821 94.3246 149.821 94.1406C149.821 93.8033 149.745 93.5426 149.591 93.3586C149.438 93.144 149.223 92.9293 148.947 92.7146C148.641 92.4693 148.426 92.2546 148.303 92.0706C148.181 91.8866 148.165 91.6413 148.257 91.3346C148.411 90.6293 149.361 90.016 151.109 89.4946C152.857 88.9426 154.682 88.6666 156.583 88.6666C158.362 88.6666 159.665 89.004 160.493 89.6786C161.352 90.3533 161.781 91.258 161.781 92.3926C161.781 92.9753 161.659 93.6653 161.413 94.4626L157.687 106.653Z" stroke="#FED100" stroke-width="8" mask="url(#path-3-outside-1_14_27)"/>
<path d="M93.8518 115.365C95.5385 115.365 96.3818 116.055 96.3818 117.435C96.3818 117.864 96.2898 118.401 96.1058 119.045L95.0018 122.771C94.6645 123.905 94.2505 124.703 93.7598 125.163C93.2691 125.623 92.5638 125.853 91.6438 125.853C90.8771 125.853 90.2791 125.653 89.8498 125.255C89.4511 124.856 89.0678 124.227 88.6998 123.369L87.9178 121.483C87.6725 120.9 87.4118 120.501 87.1358 120.287C86.8598 120.072 86.4305 119.965 85.8478 119.965H84.7898L78.9478 140.527C78.8558 140.925 78.8098 141.278 78.8098 141.585C78.8098 141.953 78.8558 142.259 78.9478 142.505C79.0705 142.75 79.2391 143.011 79.4538 143.287C79.7298 143.716 79.8678 144.069 79.8678 144.345C79.8678 144.406 79.8371 144.559 79.7758 144.805C79.6225 145.203 79.3158 145.495 78.8558 145.679C78.4265 145.863 77.7978 145.955 76.9698 145.955H66.1598C65.5158 145.955 65.0098 145.847 64.6418 145.633C64.3045 145.418 64.1358 145.111 64.1358 144.713C64.1358 144.529 64.1818 144.345 64.2738 144.161C64.3965 143.885 64.5345 143.685 64.6878 143.563C64.8718 143.409 65.1325 143.225 65.4698 143.011C65.9298 142.735 66.3131 142.428 66.6198 142.091C66.9265 141.753 67.1871 141.232 67.4018 140.527L73.1978 119.965H72.1398C71.4651 119.965 70.9131 120.072 70.4838 120.287C70.0545 120.501 69.5945 120.9 69.1038 121.483L67.5858 123.369C66.8805 124.197 66.1905 124.825 65.5158 125.255C64.8718 125.653 64.1665 125.853 63.3998 125.853C62.6945 125.853 62.1425 125.669 61.7438 125.301C61.3451 124.933 61.1458 124.427 61.1458 123.783C61.1458 123.476 61.1918 123.139 61.2838 122.771L62.4798 118.585C62.7251 117.726 63.0011 117.082 63.3078 116.653C63.6145 116.193 64.0438 115.871 64.5958 115.687C65.1785 115.472 65.9911 115.365 67.0338 115.365H93.8518Z" stroke="#FED100" stroke-width="8" mask="url(#path-3-outside-1_14_27)"/>
<path d="M104.008 121.667C105.787 121.667 107.09 122.004 107.918 122.679C108.746 123.353 109.16 124.273 109.16 125.439C109.16 126.144 109.053 126.819 108.838 127.463L104.606 141.217C104.514 141.585 104.468 141.907 104.468 142.183C104.468 142.581 104.545 142.903 104.698 143.149C104.851 143.363 105.066 143.578 105.342 143.793C105.557 144.007 105.71 144.191 105.802 144.345C105.894 144.467 105.909 144.636 105.848 144.851C105.695 145.249 105.388 145.541 104.928 145.725C104.468 145.909 103.763 146.001 102.812 146.001H92.3241C91.5268 146.001 90.9441 145.878 90.5761 145.633C90.2081 145.357 90.0854 145.004 90.2081 144.575C90.3308 144.207 90.6528 143.885 91.1741 143.609C91.6341 143.363 92.0174 143.072 92.3241 142.735C92.6308 142.397 92.8914 141.861 93.1061 141.125L97.1081 127.831C97.2001 127.555 97.2461 127.325 97.2461 127.141C97.2461 126.803 97.1694 126.543 97.0161 126.359C96.8628 126.144 96.6328 125.929 96.3261 125.715C96.0194 125.469 95.8048 125.255 95.6821 125.071C95.5594 124.887 95.5441 124.641 95.6361 124.335C95.8201 123.629 96.7861 123.016 98.5341 122.495C100.282 121.943 102.107 121.667 104.008 121.667ZM107.09 111.501C108.286 111.501 109.283 111.899 110.08 112.697C110.877 113.463 111.276 114.414 111.276 115.549C111.276 116.346 111.061 117.128 110.632 117.895C110.233 118.661 109.651 119.29 108.884 119.781C108.148 120.241 107.32 120.471 106.4 120.471C105.235 120.471 104.253 120.087 103.456 119.321C102.689 118.523 102.291 117.542 102.26 116.377C102.26 115.61 102.459 114.859 102.858 114.123C103.257 113.356 103.824 112.727 104.56 112.237C105.296 111.746 106.139 111.501 107.09 111.501Z" stroke="#FED100" stroke-width="8" mask="url(#path-3-outside-1_14_27)"/>
<path d="M152.502 139.653C152.44 139.775 152.41 139.959 152.41 140.205C152.41 140.419 152.456 140.588 152.548 140.711C152.67 140.833 152.824 140.895 153.008 140.895C153.376 140.895 153.682 140.741 153.928 140.435C154.204 140.097 154.388 139.929 154.48 139.929C154.633 139.929 154.756 140.036 154.848 140.251C154.94 140.435 154.986 140.665 154.986 140.941C155.016 141.83 154.725 142.704 154.112 143.563C153.498 144.391 152.594 145.081 151.398 145.633C150.232 146.154 148.822 146.415 147.166 146.415C145.142 146.415 143.532 145.955 142.336 145.035C141.14 144.084 140.526 142.827 140.496 141.263C140.496 140.128 140.772 138.855 141.324 137.445L143.854 130.821C144.007 130.422 144.084 130.1 144.084 129.855C144.084 129.456 143.946 129.149 143.67 128.935C143.424 128.689 143.118 128.567 142.75 128.567C142.228 128.567 141.692 128.797 141.14 129.257C140.588 129.717 140.097 130.437 139.668 131.419L137.138 139.653C137.076 139.775 137.046 139.959 137.046 140.205C137.046 140.419 137.092 140.588 137.184 140.711C137.306 140.833 137.46 140.895 137.644 140.895C138.012 140.895 138.318 140.741 138.564 140.435C138.84 140.097 139.024 139.929 139.116 139.929C139.269 139.929 139.392 140.036 139.484 140.251C139.576 140.435 139.622 140.665 139.622 140.941C139.652 141.83 139.361 142.704 138.748 143.563C138.134 144.391 137.23 145.081 136.034 145.633C134.868 146.154 133.458 146.415 131.802 146.415C129.778 146.415 128.168 145.955 126.972 145.035C125.776 144.084 125.162 142.827 125.132 141.263C125.132 140.128 125.408 138.855 125.96 137.445L128.49 130.821C128.643 130.422 128.72 130.1 128.72 129.855C128.72 129.456 128.582 129.149 128.306 128.935C128.06 128.689 127.754 128.567 127.386 128.567C126.864 128.567 126.328 128.797 125.776 129.257C125.224 129.686 124.764 130.391 124.396 131.373L121.36 141.217C121.237 141.554 121.176 141.876 121.176 142.183C121.176 142.551 121.252 142.857 121.406 143.103C121.559 143.317 121.774 143.547 122.05 143.793C122.264 143.977 122.418 144.145 122.51 144.299C122.602 144.452 122.617 144.636 122.556 144.851C122.433 145.249 122.142 145.541 121.682 145.725C121.222 145.909 120.501 146.001 119.52 146.001H109.032C108.234 146.001 107.667 145.878 107.33 145.633C106.962 145.357 106.824 145.004 106.916 144.575C107.038 144.207 107.36 143.885 107.882 143.609C108.342 143.363 108.725 143.072 109.032 142.735C109.338 142.397 109.599 141.861 109.814 141.125L113.908 127.831C113.969 127.677 114 127.463 114 127.187C114 126.849 113.923 126.589 113.77 126.405C113.647 126.221 113.432 125.991 113.126 125.715C112.819 125.469 112.604 125.255 112.482 125.071C112.359 124.887 112.344 124.641 112.436 124.335C112.62 123.629 113.586 123.016 115.334 122.495C117.082 121.943 118.906 121.667 120.808 121.667C122.31 121.667 123.491 122.081 124.35 122.909C125.239 123.737 125.668 124.871 125.638 126.313C126.895 124.565 128.214 123.353 129.594 122.679C131.004 122.004 132.522 121.667 134.148 121.667C135.926 121.667 137.368 122.188 138.472 123.231C139.606 124.243 140.235 125.577 140.358 127.233C141.676 125.147 143.087 123.706 144.59 122.909C146.092 122.081 147.733 121.667 149.512 121.667C151.382 121.667 152.885 122.234 154.02 123.369C155.185 124.503 155.768 125.975 155.768 127.785C155.768 128.735 155.614 129.671 155.308 130.591L152.502 139.653Z" stroke="#FED100" stroke-width="8" mask="url(#path-3-outside-1_14_27)"/>
<path d="M172.551 121.437C176.446 121.437 179.267 122.065 181.015 123.323C182.763 124.549 183.637 126.129 183.637 128.061C183.637 128.643 183.576 129.18 183.453 129.671C182.993 131.695 181.705 133.151 179.589 134.041C177.504 134.899 175.035 135.329 172.183 135.329C170.742 135.329 169.392 135.237 168.135 135.053C168.104 136.647 168.534 137.767 169.423 138.411C170.312 139.055 171.554 139.377 173.149 139.377C173.885 139.377 174.59 139.3 175.265 139.147C175.94 138.963 176.798 138.702 177.841 138.365C178.7 138.058 179.282 137.905 179.589 137.905C179.926 137.905 180.095 138.104 180.095 138.503C180.126 139.576 179.727 140.711 178.899 141.907C178.071 143.072 176.844 144.069 175.219 144.897C173.594 145.725 171.631 146.139 169.331 146.139C165.927 146.139 163.136 145.28 160.959 143.563C158.782 141.845 157.693 139.346 157.693 136.065C157.693 135.145 157.816 134.071 158.061 132.845C158.828 129.073 160.499 126.236 163.075 124.335C165.682 122.403 168.84 121.437 172.551 121.437ZM168.457 132.293C168.58 132.323 168.748 132.339 168.963 132.339C170.251 132.339 171.232 131.741 171.907 130.545C172.582 129.349 172.904 128.015 172.873 126.543C172.842 125.684 172.597 125.255 172.137 125.255C171.8 125.255 171.401 125.531 170.941 126.083C170.481 126.604 170.021 127.401 169.561 128.475C169.132 129.548 168.764 130.821 168.457 132.293Z" stroke="#FED100" stroke-width="8" mask="url(#path-3-outside-1_14_27)"/>
</svg>
